#tb 0: 1/15360
#tb 1: 1/44100
0,          0,          0,      512,   153600, 0x56d44d4d
1,          0,          0,     1024,     4096, 0x00000000
1,       1024,       1024,      446,     1784, 0x00000000
0,        512,        512,      512,   153600, 0xec6649c8
1,       1470,       1470,     1024,     4096, 0x00000000
1,       2494,       2494,      446,     1784, 0x00000000
0,       1024,       1024,      512,   153600, 0x9aba46ec
1,       2940,       2940,     1024,     4096, 0x00000000
1,       3964,       3964,      446,     1784, 0x00000000
0,       1536,       1536,      512,   153600, 0xf21b4314
1,       4410,       4410,     1024,     4096, 0x00000000
1,       5434,       5434,      446,     1784, 0x00000000
0,       2048,       2048,      512,   153600, 0x6c774032
1,       5880,       5880,     1024,     4096, 0x00000000
1,       6904,       6904,      446,     1784, 0x00000000
0,       2560,       2560,      512,   153600, 0xc6f03c7a
1,       7350,       7350,     1024,     4096, 0x00000000
1,       8374,       8374,      446,     1784, 0x00000000
0,       3072,       3072,      512,   153600, 0x96453967
1,       8820,       8820,     1024,     4096, 0x00000000
1,       9844,       9844,      446,     1784, 0x00000000
0,       3584,       3584,      512,   153600, 0xccca365e
1,      10290,      10290,     1024,     4096, 0x00000000
1,      11314,      11314,      446,     1784, 0x00000000
0,       4096,       4096,      512,   153600, 0x6ab632e4
1,      11760,      11760,     1024,     4096, 0x00000000
1,      12784,      12784,      446,     1784, 0x00000000
0,       4608,       4608,      512,   153600, 0x4a852fb6
1,      13230,      13230,     1024,     4096, 0x00000000
1,      14254,      14254,      446,     1784, 0x00000000
0,       5120,       5120,      512,   153600, 0x41512c84
1,      14700,      14700,     1024,     4096, 0x00000000
1,      15724,      15724,      446,     1784, 0x00000000
0,       5632,       5632,      512,   153600, 0x711d288c
1,      16170,      16170,     1024,     4096, 0x00000000
1,      17194,      17194,      446,     1784, 0x00000000
0,       6144,       6144,      512,   153600, 0x0653253a
1,      17640,      17640,     1024,     4096, 0x00000000
1,      18664,      18664,      446,     1784, 0x00000000
0,       6656,       6656,      512,   153600, 0xfd3321e6
1,      19110,      19110,     1024,     4096, 0x00000000
1,      20134,      20134,      446,     1784, 0x00000000
0,       7168,       7168,      512,   153600, 0xbb961e32
1,      20580,      20580,     1024,     4096, 0x00000000
1,      21604,      21604,      446,     1784, 0x00000000
0,       7680,       7680,      512,   153600, 0x49e61a44
1,      22050,      22050,     1024,     4096, 0x00000000
1,      23074,      23074,      446,     1784, 0x00000000
0,       8192,       8192,      512,   153600, 0x126718b0
1,      23520,      23520,     1024,     4096, 0x00000000
1,      24544,      24544,      446,     1784, 0x00000000
0,       8704,       8704,      512,   153600, 0x43fa13cd
1,      24990,      24990,     1024,     4096, 0x00000000
1,      26014,      26014,      446,     1784, 0x00000000
0,       9216,       9216,      512,   153600, 0x0fdf11fa
1,      26460,      26460,     1024,     4096, 0x00000000
1,      27484,      27484,      446,     1784, 0x00000000
0,       9728,       9728,      512,   153600, 0xacfe0d50
1,      27930,      27930,     1024,     4096, 0x00000000
1,      28954,      28954,      446,     1784, 0x00000000
0,      10240,      10240,      512,   153600, 0xe41e0a4e
1,      29400,      29400,     1024,     4096, 0x00000000
1,      30424,      30424,      446,     1784, 0x00000000
0,      10752,      10752,      512,   153600, 0x5d5e05c4
1,      30870,      30870,     1024,     4096, 0x00000000
1,      31894,      31894,      446,     1784, 0x00000000
0,      11264,      11264,      512,   153600, 0x7c770155
1,      32340,      32340,     1024,     4096, 0x00000000
1,      33364,      33364,      446,     1784, 0x00000000
0,      11776,      11776,      512,   153600, 0xfb10fe4d
1,      33810,      33810,     1024,     4096, 0x00000000
1,      34834,      34834,      446,     1784, 0x00000000
0,      12288,      12288,      512,   153600, 0x9a80f9f9
1,      35280,      35280,     1024,     4096, 0x00000000
1,      36304,      36304,      446,     1784, 0x00000000
0,      12800,      12800,      512,   153600, 0x045ff661
1,      36750,      36750,     1024,     4096, 0x00000000
1,      37774,      37774,      446,     1784, 0x00000000
0,      13312,      13312,      512,   153600, 0xfda1f381
1,      38220,      38220,     1024,     4096, 0x00000000
1,      39244,      39244,      446,     1784, 0x00000000
0,      13824,      13824,      512,   153600, 0xdd58efa8
1,      39690,      39690,     1024,     4096, 0x00000000
1,      40714,      40714,      446,     1784, 0x00000000
0,      14336,      14336,      512,   153600, 0xd6f7ec04
1,      41160,      41160,     1024,     4096, 0x00000000
1,      42184,      42184,      446,     1784, 0x00000000
0,      14848,      14848,      512,   153600, 0xe8cee9a4
1,      42630,      42630,     1024,     4096, 0x00000000
1,      43654,      43654,      446,     1784, 0x00000000
0,      15360,      15360,      512,   153600, 0x6fcce475
1,      44100,      44100,     1024,     4096, 0x00000000
1,      45124,      45124,      446,     1784, 0x00000000
0,      15872,      15872,      512,   153600, 0x1c15e29d
1,      45570,      45570,     1024,     4096, 0x00000000
1,      46594,      46594,      446,     1784, 0x00000000
0,      16384,      16384,      512,   153600, 0xc9d5de81
1,      47040,      47040,     1024,     4096, 0x00000000
1,      48064,      48064,      446,     1784, 0x00000000
0,      16896,      16896,      512,   153600, 0x7708db45
1,      48510,      48510,     1024,     4096, 0x00000000
1,      49534,      49534,      446,     1784, 0x00000000
0,      17408,      17408,      512,   153600, 0xa87bd4cc
1,      49980,      49980,     1024,     4096, 0x00000000
1,      51004,      51004,      446,     1784, 0x00000000
0,      17920,      17920,      512,   153600, 0x20bcd332
1,      51450,      51450,     1024,     4096, 0x00000000
1,      52474,      52474,      446,     1784, 0x00000000
0,      18432,      18432,      512,   153600, 0xf3aece75
1,      52920,      52920,     1024,     4096, 0x00000000
1,      53944,      53944,      446,     1784, 0x00000000
0,      18944,      18944,      512,   153600, 0x23f8cbec
1,      54390,      54390,     1024,     4096, 0x00000000
1,      55414,      55414,      446,     1784, 0x00000000
0,      19456,      19456,      512,   153600, 0x6b5dc85e
1,      55860,      55860,     1024,     4096, 0x00000000
1,      56884,      56884,      446,     1784, 0x00000000
0,      19968,      19968,      512,   153600, 0x6de9c506
1,      57330,      57330,     1024,     4096, 0x00000000
1,      58354,      58354,      446,     1784, 0x00000000
0,      20480,      20480,      512,   153600, 0x77ebc18c
1,      58800,      58800,     1024,     4096, 0x00000000
1,      59824,      59824,      446,     1784, 0x00000000
0,      20992,      20992,      512,   153600, 0xd732c24c
1,      60270,      60270,     1024,     4096, 0x00000000
1,      61294,      61294,      446,     1784, 0x00000000
0,      21504,      21504,      512,   153600, 0xedc6c746
1,      61740,      61740,     1024,     4096, 0x00000000
1,      62764,      62764,      446,     1784, 0x00000000
0,      22016,      22016,      512,   153600, 0x8f76cd1b
1,      63210,      63210,     1024,     4096, 0x00000000
1,      64234,      64234,      446,     1784, 0x00000000
0,      22528,      22528,      512,   153600, 0x5bf1cea5
1,      64680,      64680,     1024,     4096, 0x00000000
1,      65704,      65704,      446,     1784, 0x00000000
0,      23040,      23040,      512,   153600, 0xb4abcdfc
1,      66150,      66150,     1024,     4096, 0x00000000
1,      67174,      67174,      446,     1784, 0x00000000
0,      23552,      23552,      512,   153600, 0xe1c6cf62
1,      67620,      67620,     1024,     4096, 0x00000000
1,      68644,      68644,      446,     1784, 0x00000000
0,      24064,      24064,      512,   153600, 0xbe7fcc64
1,      69090,      69090,     1024,     4096, 0x00000000
1,      70114,      70114,      446,     1784, 0x00000000
0,      24576,      24576,      512,   153600, 0x8bcfcc99
1,      70560,      70560,     1024,     4096, 0x00000000
1,      71584,      71584,      446,     1784, 0x00000000
0,      25088,      25088,      512,   153600, 0xfaa4caf1
1,      72030,      72030,     1024,     4096, 0x00000000
1,      73054,      73054,      446,     1784, 0x00000000
0,      25600,      25600,      512,   153600, 0xea15cabc
1,      73500,      73500,     1024,     4096, 0x00000000
1,      74524,      74524,      446,     1784, 0x00000000
0,      26112,      26112,      512,   153600, 0x50c1ca58
1,      74970,      74970,     1024,     4096, 0x00000000
1,      75994,      75994,      446,     1784, 0x00000000
0,      26624,      26624,      512,   153600, 0xdc9dcbe5
1,      76440,      76440,     1024,     4096, 0x00000000
1,      77464,      77464,      446,     1784, 0x00000000
0,      27136,      27136,      512,   153600, 0x6adbd02d
1,      77910,      77910,     1024,     4096, 0x00000000
1,      78934,      78934,      446,     1784, 0x00000000
0,      27648,      27648,      512,   153600, 0x7cefd5b0
1,      79380,      79380,     1024,     4096, 0x00000000
1,      80404,      80404,      446,     1784, 0x00000000
0,      28160,      28160,      512,   153600, 0x0fc4d9dc
1,      80850,      80850,     1024,     4096, 0x00000000
1,      81874,      81874,      446,     1784, 0x00000000
0,      28672,      28672,      512,   153600, 0xe74edaf4
1,      82320,      82320,     1024,     4096, 0x00000000
1,      83344,      83344,      446,     1784, 0x00000000
0,      29184,      29184,      512,   153600, 0xc93dd75f
1,      83790,      83790,     1024,     4096, 0x00000000
1,      84814,      84814,      446,     1784, 0x00000000
0,      29696,      29696,      512,   153600, 0x95b9d468
1,      85260,      85260,     1024,     4096, 0x00000000
1,      86284,      86284,      446,     1784, 0x00000000
0,      30208,      30208,      512,   153600, 0x970ad172
1,      86730,      86730,     1024,     4096, 0x00000000
1,      87754,      87754,      446,     1784, 0x00000000
0,      30720,      30720,      512,   153600, 0xac40cf44
1,      88200,      88200,     1024,     4096, 0x00000000
1,      89224,      89224,      446,     1784, 0x00000000
0,      31232,      31232,      512,   153600, 0xc1a3d0c3
1,      89670,      89670,     1024,     4096, 0x00000000
1,      90694,      90694,      446,     1784, 0x00000000
0,      31744,      31744,      512,   153600, 0x0ac9d632
1,      91140,      91140,     1024,     4096, 0x00000000
1,      92164,      92164,      446,     1784, 0x00000000
0,      32256,      32256,      512,   153600, 0x6728db85
1,      92610,      92610,     1024,     4096, 0x00000000
1,      93634,      93634,      446,     1784, 0x00000000
0,      32768,      32768,      512,   153600, 0x93c4e03e
1,      94080,      94080,     1024,     4096, 0x00000000
1,      95104,      95104,      446,     1784, 0x00000000
0,      33280,      33280,      512,   153600, 0x2be6e2b3
1,      95550,      95550,     1024,     4096, 0x00000000
1,      96574,      96574,      446,     1784, 0x00000000
0,      33792,      33792,      512,   153600, 0xbad3e364
1,      97020,      97020,     1024,     4096, 0x00000000
1,      98044,      98044,      446,     1784, 0x00000000
0,      34304,      34304,      512,   153600, 0xf98be259
1,      98490,      98490,     1024,     4096, 0x00000000
1,      99514,      99514,      446,     1784, 0x00000000
0,      34816,      34816,      512,   153600, 0x2bcae278
1,      99960,      99960,     1024,     4096, 0x00000000
1,     100984,     100984,      446,     1784, 0x00000000
0,      35328,      35328,      512,   153600, 0x1c0ee251
1,     101430,     101430,     1024,     4096, 0x00000000
1,     102454,     102454,      446,     1784, 0x00000000
0,      35840,      35840,      512,   153600, 0x4beee2f0
1,     102900,     102900,     1024,     4096, 0x00000000
1,     103924,     103924,      446,     1784, 0x00000000
0,      36352,      36352,      512,   153600, 0x017de263
1,     104370,     104370,     1024,     4096, 0x00000000
1,     105394,     105394,      446,     1784, 0x00000000
0,      36864,      36864,      512,   153600, 0x8a46e206
1,     105840,     105840,     1024,     4096, 0x00000000
1,     106864,     106864,      446,     1784, 0x00000000
0,      37376,      37376,      512,   153600, 0x3997e25b
1,     107310,     107310,     1024,     4096, 0x00000000
1,     108334,     108334,      446,     1784, 0x00000000
0,      37888,      37888,      512,   153600, 0x0cfce4d2
1,     108780,     108780,     1024,     4096, 0x00000000
1,     109804,     109804,      446,     1784, 0x00000000
0,      38400,      38400,      512,   153600, 0x0e1cea74
1,     110250,     110250,     1024,     4096, 0x00000000
1,     111274,     111274,      446,     1784, 0x00000000
0,      38912,      38912,      512,   153600, 0xed36eca4
1,     111720,     111720,     1024,     4096, 0x00000000
1,     112744,     112744,      446,     1784, 0x00000000
0,      39424,      39424,      512,   153600, 0x18ccee17
1,     113190,     113190,     1024,     4096, 0x00000000
1,     114214,     114214,      446,     1784, 0x00000000
0,      39936,      39936,      512,   153600, 0x709de9f2
1,     114660,     114660,     1024,     4096, 0x00000000
1,     115684,     115684,      446,     1784, 0x00000000
0,      40448,      40448,      512,   153600, 0xd19ae510
1,     116130,     116130,     1024,     4096, 0x00000000
1,     117154,     117154,      446,     1784, 0x00000000
0,      40960,      40960,      512,   153600, 0xe426dde0
1,     117600,     117600,     1024,     4096, 0x00000000
1,     118624,     118624,      446,     1784, 0x00000000
0,      41472,      41472,      512,   153600, 0xf6c7d83e
1,     119070,     119070,     1024,     4096, 0x00000000
1,     120094,     120094,      446,     1784, 0x00000000
0,      41984,      41984,      512,   153600, 0x738dd159
1,     120540,     120540,     1024,     4096, 0x00000000
1,     121564,     121564,      446,     1784, 0x00000000
0,      42496,      42496,      512,   153600, 0x44f1cca3
1,     122010,     122010,     1024,     4096, 0x00000000
1,     123034,     123034,      446,     1784, 0x00000000
0,      43008,      43008,      512,   153600, 0xfdabc766
1,     123480,     123480,     1024,     4096, 0x00000000
1,     124504,     124504,      446,     1784, 0x00000000
0,      43520,      43520,      512,   153600, 0x81aac2a9
1,     124950,     124950,     1024,     4096, 0x00000000
1,     125974,     125974,      446,     1784, 0x00000000
0,      44032,      44032,      512,   153600, 0x71ebbd33
1,     126420,     126420,     1024,     4096, 0x00000000
1,     127444,     127444,      446,     1784, 0x00000000
0,      44544,      44544,      512,   153600, 0x8b98bf52
1,     127890,     127890,     1024,     4096, 0x00000000
1,     128914,     128914,      446,     1784, 0x00000000
0,      45056,      45056,      512,   153600, 0x4e9dc3b0
1,     129360,     129360,     1024,     4096, 0x00000000
1,     130384,     130384,      446,     1784, 0x00000000
0,      45568,      45568,      512,   153600, 0xe90fc8d0
1,     130830,     130830,     1024,     4096, 0x00000000
1,     131854,     131854,      446,     1784, 0x00000000
0,      46080,      46080,      512,   153600, 0x4361ce30
1,     132300,     132300,     1024,     4096, 0x00000000
1,     133324,     133324,      446,     1784, 0x00000000
0,      46592,      46592,      512,   153600, 0x50b9d155
1,     133770,     133770,     1024,     4096, 0x00000000
1,     134794,     134794,      446,     1784, 0x00000000
0,      47104,      47104,      512,   153600, 0x9f22d445
1,     135240,     135240,     1024,     4096, 0x00000000
1,     136264,     136264,      446,     1784, 0x00000000
0,      47616,      47616,      512,   153600, 0x67b3d710
1,     136710,     136710,     1024,     4096, 0x00000000
1,     137734,     137734,      446,     1784, 0x00000000
0,      48128,      48128,      512,   153600, 0x4e45db3a
1,     138180,     138180,     1024,     4096, 0x00000000
1,     139204,     139204,      446,     1784, 0x00000000
0,      48640,      48640,      512,   153600, 0x1304def6
1,     139650,     139650,     1024,     4096, 0x00000000
1,     140674,     140674,      446,     1784, 0x00000000
0,      49152,      49152,      512,   153600, 0x6b60e25e
1,     141120,     141120,     1024,     4096, 0x00000000
1,     142144,     142144,      446,     1784, 0x00000000
0,      49664,      49664,      512,   153600, 0x46f2e4b5
1,     142590,     142590,     1024,     4096, 0x00000000
1,     143614,     143614,      446,     1784, 0x00000000
0,      50176,      50176,      512,   153600, 0xce24e6fb
1,     144060,     144060,     1024,     4096, 0x00000000
1,     145084,     145084,      446,     1784, 0x00000000
0,      50688,      50688,      512,   153600, 0x7835e8f2
1,     145530,     145530,     1024,     4096, 0x00000000
1,     146554,     146554,      446,     1784, 0x00000000
0,      51200,      51200,      512,   153600, 0x793be97f
1,     147000,     147000,     1024,     4096, 0x00000000
1,     148024,     148024,      446,     1784, 0x00000000
0,      51712,      51712,      512,   153600, 0x5c32ea5f
1,     148470,     148470,     1024,     4096, 0x00000000
1,     149494,     149494,      446,     1784, 0x00000000
0,      52224,      52224,      512,   153600, 0xdbfaec44
1,     149940,     149940,     1024,     4096, 0x00000000
1,     150964,     150964,      446,     1784, 0x00000000
0,      52736,      52736,      512,   153600, 0x2b9bedc4
1,     151410,     151410,     1024,     4096, 0x00000000
1,     152434,     152434,      446,     1784, 0x00000000
0,      53248,      53248,      512,   153600, 0xb768ee51
1,     152880,     152880,     1024,     4096, 0x00000000
1,     153904,     153904,      446,     1784, 0x00000000
0,      53760,      53760,      512,   153600, 0xc3daed27
1,     154350,     154350,     1024,     4096, 0x00000000
1,     155374,     155374,      446,     1784, 0x00000000
0,      54272,      54272,      512,   153600, 0x1026ebc0
1,     155820,     155820,     1024,     4096, 0x00000000
1,     156844,     156844,      446,     1784, 0x00000000
0,      54784,      54784,      512,   153600, 0x5398ea75
1,     157290,     157290,     1024,     4096, 0x00000000
1,     158314,     158314,      446,     1784, 0x00000000
0,      55296,      55296,      512,   153600, 0x1ad5ea88
1,     158760,     158760,     1024,     4096, 0x00000000
1,     159784,     159784,      446,     1784, 0x00000000
0,      55808,      55808,      512,   153600, 0xb420ebde
1,     160230,     160230,     1024,     4096, 0x00000000
1,     161254,     161254,      446,     1784, 0x00000000
0,      56320,      56320,      512,   153600, 0x6a11eead
1,     161700,     161700,     1024,     4096, 0x00000000
1,     162724,     162724,      446,     1784, 0x00000000
0,      56832,      56832,      512,   153600, 0xa6b0f20d
1,     163170,     163170,     1024,     4096, 0x00000000
1,     164194,     164194,      446,     1784, 0x00000000
0,      57344,      57344,      512,   153600, 0x29d7f59b
1,     164640,     164640,     1024,     4096, 0x00000000
1,     165664,     165664,      446,     1784, 0x00000000
0,      57856,      57856,      512,   153600, 0x9feef8b4
1,     166110,     166110,     1024,     4096, 0x00000000
1,     167134,     167134,      446,     1784, 0x00000000
0,      58368,      58368,      512,   153600, 0x660ffafd
1,     167580,     167580,     1024,     4096, 0x00000000
1,     168604,     168604,      446,     1784, 0x00000000
0,      58880,      58880,      512,   153600, 0x759cfca4
1,     169050,     169050,     1024,     4096, 0x00000000
1,     170074,     170074,      446,     1784, 0x00000000
0,      59392,      59392,      512,   153600, 0xd80dfdbb
1,     170520,     170520,     1024,     4096, 0x00000000
1,     171544,     171544,      446,     1784, 0x00000000
0,      59904,      59904,      512,   153600, 0xf53bfddb
1,     171990,     171990,     1024,     4096, 0x00000000
1,     173014,     173014,      446,     1784, 0x00000000
0,      60416,      60416,      512,   153600, 0xc491fccd
1,     173460,     173460,     1024,     4096, 0x00000000
1,     174484,     174484,      446,     1784, 0x00000000
0,      60928,      60928,      512,   153600, 0x315cfa7e
1,     174930,     174930,     1024,     4096, 0x00000000
1,     175954,     175954,      446,     1784, 0x00000000
0,      61440,      61440,      512,   153600, 0xa2a6eb03
1,     176400,     176400,     1024,     4096, 0x00000000
1,     177424,     177424,      446,     1784, 0x00000000
0,      61952,      61952,      512,   153600, 0x3467cea6
1,     177870,     177870,     1024,     4096, 0x00000000
1,     178894,     178894,      446,     1784, 0x00000000
0,      62464,      62464,      512,   153600, 0x3e21b0a8
1,     179340,     179340,     1024,     4096, 0x00000000
1,     180364,     180364,      446,     1784, 0x00000000
0,      62976,      62976,      512,   153600, 0xf334906d
1,     180810,     180810,     1024,     4096, 0x00000000
1,     181834,     181834,      446,     1784, 0x00000000
0,      63488,      63488,      512,   153600, 0xf8ad6a1f
1,     182280,     182280,     1024,     4096, 0x00000000
1,     183304,     183304,      446,     1784, 0x00000000
0,      64000,      64000,      512,   153600, 0x2d4c407a
1,     183750,     183750,     1024,     4096, 0x00000000
1,     184774,     184774,      446,     1784, 0x00000000
0,      64512,      64512,      512,   153600, 0x9d2e1720
1,     185220,     185220,     1024,     4096, 0x00000000
1,     186244,     186244,      446,     1784, 0x00000000
0,      65024,      65024,      512,   153600, 0x91b2eee4
1,     186690,     186690,     1024,     4096, 0x00000000
1,     187714,     187714,      446,     1784, 0x00000000
0,      65536,      65536,      512,   153600, 0x4748cbd2
1,     188160,     188160,     1024,     4096, 0x00000000
1,     189184,     189184,      446,     1784, 0x00000000
0,      66048,      66048,      512,   153600, 0x1a17aeba
1,     189630,     189630,     1024,     4096, 0x00000000
1,     190654,     190654,      446,     1784, 0x00000000
0,      66560,      66560,      512,   153600, 0x17038c08
1,     191100,     191100,     1024,     4096, 0x00000000
1,     192124,     192124,      446,     1784, 0x00000000
0,      67072,      67072,      512,   153600, 0x5dd05d49
1,     192570,     192570,     1024,     4096, 0x00000000
1,     193594,     193594,      446,     1784, 0x00000000
0,      67584,      67584,      512,   153600, 0x6c14295a
1,     194040,     194040,     1024,     4096, 0x00000000
1,     195064,     195064,      446,     1784, 0x00000000
0,      68096,      68096,      512,   153600, 0x99f6ee77
1,     195510,     195510,     1024,     4096, 0x00000000
1,     196534,     196534,      446,     1784, 0x00000000
0,      68608,      68608,      512,   153600, 0x7238a8fe
1,     196980,     196980,     1024,     4096, 0x00000000
1,     198004,     198004,      446,     1784, 0x00000000
0,      69120,      69120,      512,   153600, 0x697a5454
1,     198450,     198450,     1024,     4096, 0x00000000
1,     199474,     199474,      446,     1784, 0x00000000
0,      69632,      69632,      512,   153600, 0x7413faf7
1,     199920,     199920,     1024,     4096, 0x00000000
1,     200944,     200944,      446,     1784, 0x00000000
0,      70144,      70144,      512,   153600, 0x3649a833
1,     201390,     201390,     1024,     4096, 0x00000000
1,     202414,     202414,      446,     1784, 0x00000000
0,      70656,      70656,      512,   153600, 0x31835e60
1,     202860,     202860,     1024,     4096, 0x00000000
1,     203884,     203884,      446,     1784, 0x00000000
0,      71168,      71168,      512,   153600, 0xc1e111dc
1,     204330,     204330,     1024,     4096, 0x00000000
1,     205354,     205354,      446,     1784, 0x00000000
0,      71680,      71680,      512,   153600, 0xd8b2b918
1,     205800,     205800,     1024,     4096, 0x00000000
1,     206824,     206824,      446,     1784, 0x00000000
0,      72192,      72192,      512,   153600, 0x2aef5ac0
1,     207270,     207270,     1024,     4096, 0x00000000
1,     208294,     208294,      446,     1784, 0x00000000
0,      72704,      72704,      512,   153600, 0xcfb0fcd0
1,     208740,     208740,     1024,     4096, 0x00000000
1,     209764,     209764,      446,     1784, 0x00000000
0,      73216,      73216,      512,   153600, 0x60429fae
1,     210210,     210210,     1024,     4096, 0x00000000
1,     211234,     211234,      446,     1784, 0x00000000
0,      73728,      73728,      512,   153600, 0xbe0e42ab
1,     211680,     211680,     1024,     4096, 0x00000000
1,     212704,     212704,      446,     1784, 0x00000000
0,      74240,      74240,      512,   153600, 0x138feaa0
1,     213150,     213150,     1024,     4096, 0x00000000
1,     214174,     214174,      446,     1784, 0x00000000
0,      74752,      74752,      512,   153600, 0xc5aba1f2
1,     214620,     214620,     1024,     4096, 0x00000000
1,     215644,     215644,      446,     1784, 0x00000000
0,      75264,      75264,      512,   153600, 0x6c235750
1,     216090,     216090,     1024,     4096, 0x00000000
1,     217114,     217114,      446,     1784, 0x00000000
0,      75776,      75776,      512,   153600, 0x5a88ff13
1,     217560,     217560,     1024,     4096, 0x00000000
1,     218584,     218584,      446,     1784, 0x00000000
0,      76288,      76288,      512,   153600, 0xa004a375
1,     219030,     219030,     1024,     4096, 0x00000000
1,     220054,     220054,      446,     1784, 0x00000000
0,      76800,      76800,      512,   153600, 0x93754736
1,     220500,     220500,     1024,     4096, 0x00000000
1,     221524,     221524,      446,     1784, 0x00000000
0,      77312,      77312,      512,   153600, 0x5af4ea06
1,     221970,     221970,     1024,     4096, 0x00000000
1,     222994,     222994,      446,     1784, 0x00000000
0,      77824,      77824,      512,   153600, 0xd2ce8d20
1,     223440,     223440,     1024,     4096, 0x00000000
1,     224464,     224464,      446,     1784, 0x00000000
0,      78336,      78336,      512,   153600, 0x32f72f38
1,     224910,     224910,     1024,     4096, 0x00000000
1,     225934,     225934,      446,     1784, 0x00000000
0,      78848,      78848,      512,   153600, 0xd845cfd1
1,     226380,     226380,     1024,     4096, 0x00000000
1,     227404,     227404,      446,     1784, 0x00000000
0,      79360,      79360,      512,   153600, 0x9b126e6c
1,     227850,     227850,     1024,     4096, 0x00000000
1,     228874,     228874,      446,     1784, 0x00000000
0,      79872,      79872,      512,   153600, 0xd0cb090d
1,     229320,     229320,     1024,     4096, 0x00000000
1,     230344,     230344,      446,     1784, 0x00000000
0,      80384,      80384,      512,   153600, 0x0882a246
1,     230790,     230790,     1024,     4096, 0x00000000
1,     231814,     231814,      446,     1784, 0x00000000
0,      80896,      80896,      512,   153600, 0x24a23f91
1,     232260,     232260,     1024,     4096, 0x00000000
1,     233284,     233284,      446,     1784, 0x00000000
0,      81408,      81408,      512,   153600, 0x6966e44f
1,     233730,     233730,     1024,     4096, 0x00000000
1,     234754,     234754,      446,     1784, 0x00000000
0,      81920,      81920,      512,   153600, 0xc9fb8bb5
1,     235200,     235200,     1024,     4096, 0x00000000
1,     236224,     236224,      446,     1784, 0x00000000
0,      82432,      82432,      512,   153600, 0x808d2ed0
1,     236670,     236670,     1024,     4096, 0x00000000
1,     237694,     237694,      446,     1784, 0x00000000
0,      82944,      82944,      512,   153600, 0x0324ce57
1,     238140,     238140,     1024,     4096, 0x00000000
1,     239164,     239164,      446,     1784, 0x00000000
0,      83456,      83456,      512,   153600, 0xb9556cc5
1,     239610,     239610,     1024,     4096, 0x00000000
1,     240634,     240634,      446,     1784, 0x00000000
0,      83968,      83968,      512,   153600, 0x01af0a8e
1,     241080,     241080,     1024,     4096, 0x00000000
1,     242104,     242104,      446,     1784, 0x00000000
0,      84480,      84480,      512,   153600, 0x2262a7b4
1,     242550,     242550,     1024,     4096, 0x00000000
1,     243574,     243574,      446,     1784, 0x00000000
0,      84992,      84992,      512,   153600, 0x19894545
1,     244020,     244020,     1024,     4096, 0x00000000
1,     245044,     245044,      446,     1784, 0x00000000
0,      85504,      85504,      512,   153600, 0x455ce4b8
1,     245490,     245490,     1024,     4096, 0x00000000
1,     246514,     246514,      446,     1784, 0x00000000
0,      86016,      86016,      512,   153600, 0xd2878a07
1,     246960,     246960,     1024,     4096, 0x00000000
1,     247984,     247984,      446,     1784, 0x00000000
0,      86528,      86528,      512,   153600, 0x01e92e1e
1,     248430,     248430,     1024,     4096, 0x00000000
1,     249454,     249454,      446,     1784, 0x00000000
0,      87040,      87040,      512,   153600, 0x49c9c9af
1,     249900,     249900,     1024,     4096, 0x00000000
1,     250924,     250924,      446,     1784, 0x00000000
0,      87552,      87552,      512,   153600, 0x18bf5be8
1,     251370,     251370,     1024,     4096, 0x00000000
1,     252394,     252394,      446,     1784, 0x00000000
0,      88064,      88064,      512,   153600, 0x4058ed2a
1,     252840,     252840,     1024,     4096, 0x00000000
1,     253864,     253864,      446,     1784, 0x00000000
0,      88576,      88576,      512,   153600, 0xd7c47e0f
1,     254310,     254310,     1024,     4096, 0x00000000
1,     255334,     255334,      446,     1784, 0x00000000
0,      89088,      89088,      512,   153600, 0xc4fa0ec9
1,     255780,     255780,     1024,     4096, 0x00000000
1,     256804,     256804,      446,     1784, 0x00000000
0,      89600,      89600,      512,   153600, 0xbf189e8c
1,     257250,     257250,     1024,     4096, 0x00000000
1,     258274,     258274,      446,     1784, 0x00000000
0,      90112,      90112,      512,   153600, 0x45e32dc5
1,     258720,     258720,     1024,     4096, 0x00000000
1,     259744,     259744,      446,     1784, 0x00000000
0,      90624,      90624,      512,   153600, 0xdbfcbcf3
1,     260190,     260190,     1024,     4096, 0x00000000
1,     261214,     261214,      446,     1784, 0x00000000
0,      91136,      91136,      512,   153600, 0xb0064b96
1,     261660,     261660,     1024,     4096, 0x00000000
1,     262684,     262684,      446,     1784, 0x00000000
0,      91648,      91648,      512,   153600, 0x7d4cd916
1,     263130,     263130,     1024,     4096, 0x00000000
1,     264154,     264154,      446,     1784, 0x00000000
0,      92160,      92160,      512,   153600, 0x87acddc3
1,     264600,     264600,     1024,     4096, 0x00000000
1,     265624,     265624,      446,     1784, 0x00000000
0,      92672,      92672,      512,   153600, 0x527d1392
1,     266070,     266070,     1024,     4096, 0x00000000
1,     267094,     267094,      446,     1784, 0x00000000
0,      93184,      93184,      512,   153600, 0x8be94936
1,     267540,     267540,     1024,     4096, 0x00000000
1,     268564,     268564,      446,     1784, 0x00000000
0,      93696,      93696,      512,   153600, 0x714f7ecd
1,     269010,     269010,     1024,     4096, 0x00000000
1,     270034,     270034,      446,     1784, 0x00000000
0,      94208,      94208,      512,   153600, 0x3d89b550
1,     270480,     270480,     1024,     4096, 0x00000000
1,     271504,     271504,      446,     1784, 0x00000000
0,      94720,      94720,      512,   153600, 0x3f66eac4
1,     271950,     271950,     1024,     4096, 0x00000000
1,     272974,     272974,      446,     1784, 0x00000000
0,      95232,      95232,      512,   153600, 0x45e01d7b
1,     273420,     273420,     1024,     4096, 0x00000000
1,     274444,     274444,      446,     1784, 0x00000000
0,      95744,      95744,      512,   153600, 0xd0a23fcd
1,     274890,     274890,     1024,     4096, 0x00000000
1,     275914,     275914,      446,     1784, 0x00000000
0,      96256,      96256,      512,   153600, 0xf49b60d1
1,     276360,     276360,     1024,     4096, 0x00000000
1,     277384,     277384,      446,     1784, 0x00000000
0,      96768,      96768,      512,   153600, 0xe5648acc
1,     277830,     277830,     1024,     4096, 0x00000000
1,     278854,     278854,      446,     1784, 0x00000000
0,      97280,      97280,      512,   153600, 0x42fbb68c
1,     279300,     279300,     1024,     4096, 0x00000000
1,     280324,     280324,      446,     1784, 0x00000000
0,      97792,      97792,      512,   153600, 0xab8ee274
1,     280770,     280770,     1024,     4096, 0x00000000
1,     281794,     281794,      446,     1784, 0x00000000
0,      98304,      98304,      512,   153600, 0x38cd0842
1,     282240,     282240,     1024,     4096, 0x00000000
1,     283264,     283264,      446,     1784, 0x00000000
0,      98816,      98816,      512,   153600, 0xebe02f21
1,     283710,     283710,     1024,     4096, 0x00000000
1,     284734,     284734,      446,     1784, 0x00000000
0,      99328,      99328,      512,   153600, 0x86cd6591
1,     285180,     285180,     1024,     4096, 0x00000000
1,     286204,     286204,      446,     1784, 0x00000000
0,      99840,      99840,      512,   153600, 0xb2689881
1,     286650,     286650,     1024,     4096, 0x00000000
1,     287674,     287674,      446,     1784, 0x00000000
0,     100352,     100352,      512,   153600, 0xb0a2c7c9
1,     288120,     288120,     1024,     4096, 0x00000000
1,     289144,     289144,      446,     1784, 0x00000000
0,     100864,     100864,      512,   153600, 0x8511f52c
1,     289590,     289590,     1024,     4096, 0x00000000
1,     290614,     290614,      446,     1784, 0x00000000
0,     101376,     101376,      512,   153600, 0x8f302278
1,     291060,     291060,     1024,     4096, 0x00000000
1,     292084,     292084,      446,     1784, 0x00000000
0,     101888,     101888,      512,   153600, 0x33e23f37
1,     292530,     292530,     1024,     4096, 0x00000000
1,     293554,     293554,      446,     1784, 0x00000000
0,     102400,     102400,      512,   153600, 0x13026a92
1,     294000,     294000,     1024,     4096, 0x00000000
1,     295024,     295024,      446,     1784, 0x00000000
0,     102912,     102912,      512,   153600, 0x4f17a091
1,     295470,     295470,     1024,     4096, 0x00000000
1,     296494,     296494,      446,     1784, 0x00000000
0,     103424,     103424,      512,   153600, 0x6fd2d28d
1,     296940,     296940,     1024,     4096, 0x00000000
1,     297964,     297964,      446,     1784, 0x00000000
0,     103936,     103936,      512,   153600, 0x7efdf466
1,     298410,     298410,     1024,     4096, 0x00000000
1,     299434,     299434,      446,     1784, 0x00000000
0,     104448,     104448,      512,   153600, 0x815b24f4
1,     299880,     299880,     1024,     4096, 0x00000000
1,     300904,     300904,      446,     1784, 0x00000000
0,     104960,     104960,      512,   153600, 0xa71f55ff
1,     301350,     301350,     1024,     4096, 0x00000000
1,     302374,     302374,      446,     1784, 0x00000000
0,     105472,     105472,      512,   153600, 0x6e167b23
1,     302820,     302820,     1024,     4096, 0x00000000
1,     303844,     303844,      446,     1784, 0x00000000
0,     105984,     105984,      512,   153600, 0xd6d2ac8c
1,     304290,     304290,     1024,     4096, 0x00000000
1,     305314,     305314,      446,     1784, 0x00000000
0,     106496,     106496,      512,   153600, 0x6e2ddf72
1,     305760,     305760,     1024,     4096, 0x00000000
1,     306784,     306784,      446,     1784, 0x00000000
0,     107008,     107008,      512,   153600, 0xce510a4d
1,     307230,     307230,     1024,     4096, 0x00000000
1,     308254,     308254,      446,     1784, 0x00000000
0,     107520,     107520,      512,   153600, 0x9b213892
1,     308700,     308700,     1024,     4096, 0x00000000
1,     309724,     309724,      446,     1784, 0x00000000
0,     108032,     108032,      512,   153600, 0xa6f26594
1,     310170,     310170,     1024,     4096, 0x00000000
1,     311194,     311194,      446,     1784, 0x00000000
0,     108544,     108544,      512,   153600, 0x81f99a6d
1,     311640,     311640,     1024,     4096, 0x00000000
1,     312664,     312664,      446,     1784, 0x00000000
0,     109056,     109056,      512,   153600, 0x3dffc899
1,     313110,     313110,     1024,     4096, 0x00000000
1,     314134,     314134,      446,     1784, 0x00000000
0,     109568,     109568,      512,   153600, 0xbfe6f5af
1,     314580,     314580,     1024,     4096, 0x00000000
1,     315604,     315604,      446,     1784, 0x00000000
0,     110080,     110080,      512,   153600, 0xc5201499
1,     316050,     316050,     1024,     4096, 0x00000000
1,     317074,     317074,      446,     1784, 0x00000000
0,     110592,     110592,      512,   153600, 0xe12548dc
1,     317520,     317520,     1024,     4096, 0x00000000
1,     318544,     318544,      446,     1784, 0x00000000
0,     111104,     111104,      512,   153600, 0xa0cb6d4d
1,     318990,     318990,     1024,     4096, 0x00000000
1,     320014,     320014,      446,     1784, 0x00000000
0,     111616,     111616,      512,   153600, 0x51ae97eb
1,     320460,     320460,     1024,     4096, 0x00000000
1,     321484,     321484,      446,     1784, 0x00000000
0,     112128,     112128,      512,   153600, 0xba18bab0
1,     321930,     321930,     1024,     4096, 0x00000000
1,     322954,     322954,      446,     1784, 0x00000000
0,     112640,     112640,      512,   153600, 0x5c1aeb14
1,     323400,     323400,     1024,     4096, 0x00000000
1,     324424,     324424,      446,     1784, 0x00000000
0,     113152,     113152,      512,   153600, 0x7d74121e
1,     324870,     324870,     1024,     4096, 0x00000000
1,     325894,     325894,      446,     1784, 0x00000000
0,     113664,     113664,      512,   153600, 0xad483b07
1,     326340,     326340,     1024,     4096, 0x00000000
1,     327364,     327364,      446,     1784, 0x00000000
0,     114176,     114176,      512,   153600, 0x3b406867
1,     327810,     327810,     1024,     4096, 0x00000000
1,     328834,     328834,      446,     1784, 0x00000000
0,     114688,     114688,      512,   153600, 0xceaa9a98
1,     329280,     329280,     1024,     4096, 0x00000000
1,     330304,     330304,      446,     1784, 0x00000000
0,     115200,     115200,      512,   153600, 0xf31fccbe
1,     330750,     330750,     1024,     4096, 0x00000000
1,     331774,     331774,      446,     1784, 0x00000000
0,     115712,     115712,      512,   153600, 0x2c59fdd9
1,     332220,     332220,     1024,     4096, 0x00000000
1,     333244,     333244,      446,     1784, 0x00000000
0,     116224,     116224,      512,   153600, 0x0a112da4
1,     333690,     333690,     1024,     4096, 0x00000000
1,     334714,     334714,      446,     1784, 0x00000000
0,     116736,     116736,      512,   153600, 0xcecc5bbe
1,     335160,     335160,     1024,     4096, 0x00000000
1,     336184,     336184,      446,     1784, 0x00000000
0,     117248,     117248,      512,   153600, 0xf3878804
1,     336630,     336630,     1024,     4096, 0x00000000
1,     337654,     337654,      446,     1784, 0x00000000
0,     117760,     117760,      512,   153600, 0x1d4d9e60
1,     338100,     338100,     1024,     4096, 0x00000000
1,     339124,     339124,      446,     1784, 0x00000000
0,     118272,     118272,      512,   153600, 0x86bc8787
1,     339570,     339570,     1024,     4096, 0x00000000
1,     340594,     340594,      446,     1784, 0x00000000
0,     118784,     118784,      512,   153600, 0x55b23b9f
1,     341040,     341040,     1024,     4096, 0x00000000
1,     342064,     342064,      446,     1784, 0x00000000
0,     119296,     119296,      512,   153600, 0xbe05b5ef
1,     342510,     342510,     1024,     4096, 0x00000000
1,     343534,     343534,      446,     1784, 0x00000000
0,     119808,     119808,      512,   153600, 0xec2be5fd
1,     343980,     343980,     1024,     4096, 0x00000000
1,     345004,     345004,      446,     1784, 0x00000000
0,     120320,     120320,      512,   153600, 0x690a9d25
1,     345450,     345450,     1024,     4096, 0x00000000
1,     346474,     346474,      446,     1784, 0x00000000
0,     120832,     120832,      512,   153600, 0xf63ffb25
1,     346920,     346920,     1024,     4096, 0x00000000
1,     347944,     347944,      446,     1784, 0x00000000
0,     121344,     121344,      512,   153600, 0xf6384dd8
1,     348390,     348390,     1024,     4096, 0x00000000
1,     349414,     349414,      446,     1784, 0x00000000
0,     121856,     121856,      512,   153600, 0xf4a386d5
1,     349860,     349860,     1024,     4096, 0x00000000
1,     350884,     350884,      446,     1784, 0x00000000
0,     122368,     122368,      512,   153600, 0xdf5e91ab
1,     351330,     351330,     1024,     4096, 0x00000000
1,     352354,     352354,      446,     1784, 0x00000000
